<svg id="Layer_1" data-name="Layer 1" xmlns="http://www.w3.org/2000/svg" viewBox="0 0 1000 1000"><defs><style>.cls-1{fill:#071631;}.cls-2{fill:#77a559;}.cls-3{fill:#326b9e;}.cls-4{fill:none;stroke:#326b9e;stroke-linecap:round;stroke-linejoin:round;stroke-width:16px;}.cls-5{fill:#d4e1f3;}</style></defs><path class="cls-1" d="M129.18,807.15s4.08,32.88,34,33c32.61.08,37-20.24,37.31-34.89a50,50,0,0,0-6.91-25.69V762.94H151.84v5.25S128.9,774.54,129.18,807.15Z"/><rect class="cls-2" x="269.78" y="358.76" width="49.89" height="399.5"/><path class="cls-3" d="M321.75,779.82a91.51,91.51,0,0,1-54,0c-3.75-1.12-6.24-3.89-6.24-7V446.45c0-5.31,6.95-8.9,13.33-6.92a65.82,65.82,0,0,0,39.86,0c6.38-2,13.33,1.61,13.33,6.92V772.83C328,775.93,325.49,778.7,321.75,779.82Z"/><path class="cls-3" d="M166.48,291.86,508,171.78a92.71,92.71,0,0,1,53.51-2.41l218.31,55.26c9.69,2.45,10.5,15.92,1.16,19.5L423.33,381.5a10.25,10.25,0,0,1-6.45.29L167.1,311.39C157.46,308.68,157,295.18,166.48,291.86Z"/><path class="cls-3" d="M166.48,320.63,531.43,192.3a10.3,10.3,0,0,1,5.92-.27L779.78,253.4a10.25,10.25,0,0,1,1.16,19.51L449.79,400.11a95.6,95.6,0,0,1-60.2,2.77L167.1,340.17A10.25,10.25,0,0,1,166.48,320.63Z"/><path class="cls-4" d="M166.48,718.88,531.43,590.55a10.3,10.3,0,0,1,5.92-.27l242.43,61.37a10.25,10.25,0,0,1,1.16,19.51L449.79,798.36a95.6,95.6,0,0,1-60.2,2.77L167.1,738.42A10.25,10.25,0,0,1,166.48,718.88Z"/><path class="cls-5" d="M205.93,293,506.21,187.36a62.75,62.75,0,0,1,36.25-1.63l198.29,50.19a4.38,4.38,0,0,1,.5,8.34L442.4,359.05a42.65,42.65,0,0,1-26.9,1.24l-209.3-59A4.38,4.38,0,0,1,205.93,293Z"/><polygon class="cls-3" points="787.49 264 787.49 233.9 742.06 252.4 755.92 265.78 787.49 264"/><polygon class="cls-3" points="159.63 331.79 159.63 301.34 190.45 301.34 199.46 318.56 159.63 331.79"/><path class="cls-1" d="M380.65,876.68s5.12,41.23,42.62,41.32c40.88.09,46.42-25.38,46.77-43.75A62.58,62.58,0,0,0,461.38,842V821.25H409.06v6.58S380.31,835.8,380.65,876.68Z"/><path class="cls-1" d="M727.47,742.88s4.08,32.9,34,33c32.64.07,37.06-20.26,37.34-34.92a50,50,0,0,0-6.91-25.72V698.63H750.15v5.26S727.2,710.25,727.47,742.88Z"/><path class="cls-3" d="M404.21,801c-.92,1.42-.62,12.67-.31,20a6.64,6.64,0,0,0,6.64,6.36h50.08a6.64,6.64,0,0,0,6.65-6.64V795Z"/><path class="cls-3" d="M151.45,737.77c-.52.81-2.45,7.57-4.33,14.47A12.3,12.3,0,0,0,159,767.78h34.27l-2.38-12.89Z"/><path class="cls-1" d="M499.77,645.3s3.25,26.22,27.1,26.28c26,.06,29.54-16.14,29.76-27.82a39.85,39.85,0,0,0-5.51-20.5l-1-13.22H517.84v4.18S499.55,619.29,499.77,645.3Z"/><path class="cls-3" d="M517.54,590c-.42.64-2,6-3.46,11.54a9.8,9.8,0,0,0,9.47,12.39h27.33V603.3Z"/><path class="cls-3" d="M741,679.88c-1.39,2.6-4.25,21.12-4.25,21.12h47.92a15.14,15.14,0,0,0,15.14-15.15V661.44Z"/><path class="cls-5" d="M425.38,881.59c-.4-7.92,3.4-17.7,8.95-23.35,4.72-4.81,12.78-7,18.32-3.19a15.7,15.7,0,0,1,5,6.45,27.36,27.36,0,0,1,.6,21.34c-2.29,5.75-8,13.31-14.46,14.82-6.64,1.57-14-3.26-16.76-9.06A18.46,18.46,0,0,1,425.38,881.59Z"/><path class="cls-5" d="M164.85,811.61c-.31-5.85,2.7-13.05,7.11-17.22,3.75-3.55,10.16-5.18,14.56-2.35a11.63,11.63,0,0,1,4,4.75,18.83,18.83,0,0,1,.48,15.74c-1.82,4.24-6.39,9.81-11.49,10.92-5.28,1.16-11.12-2.4-13.31-6.68A12.48,12.48,0,0,1,164.85,811.61Z"/><path class="cls-5" d="M523.23,649.38c-.31-5.84,2.71-13,7.12-17.22,3.75-3.54,10.15-5.17,14.56-2.35a11.82,11.82,0,0,1,4,4.76,18.84,18.84,0,0,1,.47,15.73c-1.81,4.24-6.38,9.81-11.48,10.92-5.28,1.16-11.13-2.4-13.32-6.67A12.84,12.84,0,0,1,523.23,649.38Z"/><path class="cls-5" d="M764.27,745.22a28.61,28.61,0,0,1,7.55-19.68c4-4,10.77-5.92,15.44-2.69a13.23,13.23,0,0,1,4.24,5.44,23,23,0,0,1,.51,18c-1.93,4.84-6.77,11.21-12.18,12.49-5.61,1.32-11.81-2.75-14.13-7.64A15.28,15.28,0,0,1,764.27,745.22Z"/></svg>