<svg id="Layer_1" data-name="Layer 1" xmlns="http://www.w3.org/2000/svg" viewBox="0 0 1000 1000"><defs><style>.cls-1{fill:#071631;}.cls-2{fill:#33587b;}.cls-3{fill:#eee8e7;}.cls-4{fill:#fff;opacity:0.5;}.cls-5{fill:#2477ae;}.cls-6{fill:#326b9e;}.cls-7{fill:#295a8e;}.cls-8{fill:#5da9dd;}.cls-9{fill:#77a559;}.cls-10{fill:#81a2ca;}.cls-11{fill:#d4e1f3;}.cls-12{fill:#4492ca;}</style></defs><path class="cls-1" d="M541.44,889.86a6.82,6.82,0,0,0,1.57-1.53c.83-1.07.83-4.44,0-6.73s-3.88-2.91-10.42-2.91-9.58.61-10.41,2.91-.83,5.66,0,6.73a6.91,6.91,0,0,0,1.56,1.53s-3.88,6.58-3.88,17.6,12.73,11,12.73,11,12.74,0,12.74-11S541.44,889.86,541.44,889.86Z"/><path class="cls-1" d="M552.94,262.33a3,3,0,0,1-1.63-.48,3,3,0,0,1-.88-4.15c.05-.08,5.59-8.61,9.75-15.3a3,3,0,1,1,5.09,3.17c-4.19,6.73-9.76,15.31-9.81,15.4A3,3,0,0,1,552.94,262.33Z"/><circle class="cls-2" cx="567.03" cy="237.45" r="11.67"/><path class="cls-1" d="M560,241.52H544.29a4,4,0,0,1,0-8H560a4,4,0,0,1,0,8Z"/><path class="cls-3" d="M426.72,315.89H396.45s6.52,72.86,7.94,74.31,9.47,6,22.33,6,20.91-4.54,22.33-6S457,315.89,457,315.89Z"/><path class="cls-4" d="M452.62,319.89c-2.26,25-5.77,61.05-7.06,67.95-2.14,1.32-8.72,4.36-18.84,4.36s-16.75-3.06-18.84-4.35c-1.28-6.87-4.79-43-7.06-68h51.8m4.38-4H396.45s6.52,72.86,7.94,74.31,9.47,6,22.33,6,20.91-4.54,22.33-6S457,315.89,457,315.89Z"/><path class="cls-2" d="M461.33,306.24a3.6,3.6,0,0,0-2.64-2.36l-32,4.65-32-4.65a3.6,3.6,0,0,0-2.65,2.36c-.53,1.94,1.06,10.24,1.33,11.48s16.33,3.35,33.28,3.35,33-2.12,33.29-3.35S461.86,308.18,461.33,306.24Z"/><path class="cls-5" d="M455.28,301.12c-10.46-18.9-28.56-16.25-28.56-16.25s-18.09-2.65-28.56,16.25c-.57.35-4.47,2.34-3.93,4.94,1.06,5.12,32.49,5.12,32.49,5.12s31.44,0,32.5-5.12C459.75,303.46,455.86,301.47,455.28,301.12Z"/><path class="cls-2" d="M438.22,268.37c-.67-2.14-7.48-2.05-10.29-1.92-.81,0-1.61,0-2.41,0-2.81-.13-9.63-.22-10.3,1.92-.84,2.69,2.66,9.77,7.08,10.95.84.67-.76,8.59,4.42,8.59s3.58-7.92,4.42-8.59C435.57,278.14,439.06,271.06,438.22,268.37Z"/><path class="cls-6" d="M426.72,270.39a4,4,0,0,1-4-4V244a4,4,0,1,1,8,0v22.41A4,4,0,0,1,426.72,270.39Z"/><rect class="cls-6" x="424.22" y="784.87" width="163.61" height="10" transform="translate(-183.97 154.37) rotate(-14.71)"/><path class="cls-1" d="M634.79,867.45a6.91,6.91,0,0,0,1.56-1.53c.83-1.07.83-4.44,0-6.74s-3.88-2.9-10.41-2.9-9.59.61-10.42,2.9-.83,5.67,0,6.74a6.82,6.82,0,0,0,1.57,1.53s-3.89,6.58-3.89,17.6,12.74,11,12.74,11,12.73,0,12.73-11S634.79,867.45,634.79,867.45Z"/><path class="cls-6" d="M532.59,888.38a5,5,0,0,1-5-5V864.3c0-15.2-7.68-41.37-7.76-41.64a5,5,0,0,1,9.59-2.83c.33,1.13,8.16,27.84,8.16,44.47v19.09A5,5,0,0,1,532.59,888.38Z"/><path class="cls-1" d="M587.74,707.56c-17.07,0-30.91,27.55-30.91,61.52s13.84,61.53,30.91,61.53,30.92-27.55,30.92-61.53S604.82,707.56,587.74,707.56Zm0,111.05c-6.67,0-18.92-18.8-18.92-49.53s12.25-49.52,18.92-49.52,18.92,18.8,18.92,49.52S594.41,818.61,587.74,818.61Z"/><path class="cls-6" d="M625.93,863.26a5,5,0,0,1-4.92-4.13c0-.15-2.61-14.73-6.79-22.77-2.2-4.24-22.21-13.63-39.52-19.74a5,5,0,1,1,3.33-9.43c9.28,3.28,40,14.73,45.06,24.56,4.89,9.41,7.65,25,7.77,25.65a5,5,0,0,1-4.06,5.78A4.33,4.33,0,0,1,625.93,863.26Z"/><ellipse class="cls-1" cx="587.74" cy="769.08" rx="8.26" ry="16.44"/><path class="cls-1" d="M534,815.25a.57.57,0,0,1-.28-.08.54.54,0,0,1-.28.08c-38.91,0-53-12.54-56.76-16.87a4.47,4.47,0,0,1-1.1-2.91v12.62a4.45,4.45,0,0,0,1.1,2.91c3.72,4.33,17.85,16.87,56.76,16.87a.46.46,0,0,0,.28-.08.48.48,0,0,0,.28.08c38.91,0,53-12.54,56.76-16.87a4.41,4.41,0,0,0,1.11-2.91V795.47a4.43,4.43,0,0,1-1.11,2.91C587.08,802.71,573,815.25,534,815.25Z"/><path class="cls-5" d="M584.06,788.15l-50,13s-.11,1-.28,2.64c-.16-1.64-.28-2.64-.28-2.64l-50-13c-1.24.36-7.85,1.8-7.85,6.85v.47a4.47,4.47,0,0,0,1.1,2.91c3.72,4.33,17.85,16.87,56.76,16.87a.54.54,0,0,0,.28-.08.57.57,0,0,0,.28.08c38.91,0,53-12.54,56.76-16.87a4.43,4.43,0,0,0,1.11-2.91V795C591.91,790,585.3,788.51,584.06,788.15Z"/><path class="cls-1" d="M427.09,65.07c-10.25-2-19.58,8.88-18.67,13.66s6.37,6.38,8.2,10.48.91,9.1,3.64,12.29,8,3.41,9.1,6.37-.45,8.65,3.42,13,7.28,3.41,8,5.46,2.27,12.3,8.42,16.85,22.08-8,22.77-12.75S428.57,65.37,427.09,65.07Z"/><path class="cls-6" d="M487.41,364.32a7,7,0,0,1-7-7V188.24a27.44,27.44,0,0,0-4.11-14.45l-22.85-37a7,7,0,0,1,11.91-7.36l22.85,37a41.48,41.48,0,0,1,6.19,21.81V357.32A7,7,0,0,1,487.41,364.32Z"/><path class="cls-6" d="M532.59,272.79c-56.79,0-52.47,63.64-52.47,63.64V795.84s9.23,14.81,52.47,14.81,52.48-14.81,52.48-14.81V336.43S589.39,272.79,532.59,272.79Z"/><path class="cls-7" d="M533.48,272.79c-.31,0-.58,0-.88,0s-.57,0-.87,0c-46.91,0-51.42,44.85-51.67,59.24,0,.09,7.23,15.39,52.54,15.39s52.52-15.3,52.54-15.39C584.9,317.64,580.38,272.79,533.48,272.79Z"/><path class="cls-1" d="M426.9,750.38c-17.07,0-30.91,27.55-30.91,61.53s13.84,61.52,30.91,61.52,30.91-27.55,30.91-61.52S444,750.38,426.9,750.38Zm0,111c-6.67,0-18.92-18.8-18.92-49.52s12.25-49.53,18.92-49.53,18.92,18.8,18.92,49.53S433.57,861.43,426.9,861.43Z"/><ellipse class="cls-1" cx="426.9" cy="811.91" rx="8.26" ry="16.44"/><path class="cls-2" d="M548.74,264.59l-15.26,1.73-15.25-1.73c-1.79,2.87-3.1,10.85-2.12,13s11.45,4.07,17.37,4.07,16.4-1.95,17.38-4.07S550.53,267.46,548.74,264.59Z"/><ellipse class="cls-8" cx="533.2" cy="264.59" rx="14.98" ry="2.55"/><path class="cls-6" d="M529.48,244v17.89a2.72,2.72,0,0,0,2.72,2.72h2.56a2.72,2.72,0,0,0,2.72-2.72V244Z"/><path class="cls-9" d="M387,219.31c9.79,0,152.24,5.19,158.13,5.95,11.55.39,13,22.29.85,23.41-7.2.79-159,3.38-159,3.38"/><path class="cls-5" d="M398.16,235.68c0,9-5,16.37-11.14,16.37s-11.14-7.33-11.14-16.37,5-16.37,11.14-16.37S398.16,226.64,398.16,235.68Z"/><path class="cls-1" d="M463,234l4.77-4.24a17.12,17.12,0,0,0-1.49-2.35,16.53,16.53,0,0,0-4.81-13.86,17.49,17.49,0,0,0-8.44-4.87c-1.13-1.59-1.86-2.6-1.86-2.6s-2.7,1.36-5.5,2.73a11.47,11.47,0,0,0-3.19,1.54l-.06,0h0a12,12,0,0,0-1.49,1.2c-5.29,5.14-4.66,14.36,1.4,20.59,5.68,5.85,14.13,7,19.52,2.85h0l0,0a11.14,11.14,0,0,0,1-.85A1.79,1.79,0,0,0,463,234Z"/><path class="cls-2" d="M468.26,229.39c-4.94,4.79-13.52,4-19.17-1.84s-6.23-14.41-1.3-19.21,13.51-4,19.17,1.84S473.19,224.59,468.26,229.39Z"/><path class="cls-10" d="M463.81,213.24c-3.41-3.51-8.45-4.18-11.71-1.74a9.51,9.51,0,0,1,10.08,2.65c3.67,3.77,4,9.34.85,12.45a7.61,7.61,0,0,1-.72.55,7.12,7.12,0,0,0,2.35-1.46C467.85,222.58,467.48,217,463.81,213.24Z"/><path class="cls-11" d="M462.18,214.15a9.51,9.51,0,0,0-10.08-2.65,7.38,7.38,0,0,0-.71.54c-3.2,3.11-2.82,8.69.84,12.45a9.53,9.53,0,0,0,10.08,2.66,7.61,7.61,0,0,0,.72-.55C466.22,223.49,465.85,217.92,462.18,214.15Z"/><path class="cls-1" d="M570.42,234.13a3,3,0,0,1-2.54-4.59l4.89-7.86c4.17-6.7,5.88-9.44,6.26-10a3,3,0,1,1,5,3.36c-.34.5-2.65,4.21-6.14,9.82l-4.9,7.87A3,3,0,0,1,570.42,234.13Z"/><path class="cls-12" d="M532,564.68c46.71,0,55.38-15.57,55.7-16.19a2.31,2.31,0,0,1,.61-.8v-.51a2,2,0,0,0-3.91-.83c-.3.55-8.36,14.51-51.8,14.51s-51.5-14-51.8-14.51a2,2,0,0,0-3.91.83v2.21C479.45,552.82,491.23,564.68,532,564.68Z"/><path class="cls-7" d="M477,567.7c0,.18,7.17,17.28,55.65,17.28s55.61-17.1,55.65-17.28a1.91,1.91,0,0,0,.06-.48V547.69a2.31,2.31,0,0,0-.61.8c-.32.62-9,16.19-55.7,16.19-40.77,0-52.55-11.86-55.11-15.29v17.83A1.91,1.91,0,0,0,477,567.7Z"/><path class="cls-1" d="M545.16,574.57H541.1a4,4,0,0,1-4-4V554.79a5.59,5.59,0,0,1,.89-3l17.84-27.6A17.25,17.25,0,0,1,567,516.59c11.57-2.35,32.42-6.08,43.57-5a8.42,8.42,0,0,1,5.87,3,8,8,0,0,1,.59,9.19c-4,6.58-15.93,22.77-19.78,28v8.63a6,6,0,0,1-6,6h-6V547.77l1.19-1.59c.13-.17,10.12-13.57,16.43-22.7-8,.38-19.76,2.08-33.48,4.86a5.33,5.33,0,0,0-3.41,2.33l-14.05,21.74a17.27,17.27,0,0,0-2.76,9.36v8.83A4,4,0,0,1,545.16,574.57Z"/></svg>