<svg id="Layer_1" data-name="Layer 1" xmlns="http://www.w3.org/2000/svg" viewBox="0 0 1000 1000"><defs><style>.cls-1{fill:#d4e1f3;}.cls-2{fill:#3779aa;}.cls-3{fill:#326b9e;}.cls-4{fill:#77a559;}</style></defs><path class="cls-1" d="M217.3,517.85,201,516.14l3.3-31.47c.22-37.16,27.89-68.17,64.54-72.22l267.11-27.22,1.66,16.32-267,27.22c-28.4,3.14-49.86,27.36-49.86,56.34l-.05.86Z"/><path class="cls-1" d="M261.14,305l-1.31-16.35L504.63,269a419,419,0,0,1,105.5,4.89l17,3L624.27,293l-17-3A402.59,402.59,0,0,0,506,285.33Z"/><path class="cls-2" d="M310.41,415.4s-70.62-281.34,90.31-284.82S542,389.92,542,389.92Z"/><path class="cls-1" d="M791.44,765.52,731.71,302.65a21.11,21.11,0,0,0-17.56-18.23l-57.56-9.65a21.25,21.25,0,0,0-24.75,21.32L637.59,635l-16.41.27-5.75-338.85a37.65,37.65,0,0,1,43.88-37.78l57.55,9.64A37.45,37.45,0,0,1,748,300.55l59.72,462.87Z"/><path class="cls-3" d="M595.23,431,581.45,556.49a26.19,26.19,0,0,1-24.69,23.3l-135.84,7a26.21,26.21,0,0,1-26.72-19.59l-34.62-133.7Z"/><path class="cls-2" d="M622.83,422.52a7,7,0,0,0,0-3.31V399.14l-65.43,3.64c-54.49-2.43-123.1,2.58-123.1,2.58S407.6,408,379,412.72l-69,3.83v20.84c.44,6.36,14,13.49,49.05,21.23,26.26,5.8,71.87,8,99.48,8.79a337.78,337.78,0,0,0,53.57-2.67c37.29-4.84,97.21-16.15,109.77-39.7a10.57,10.57,0,0,0,1-2.52Z"/><path class="cls-3" d="M434.3,385.29S640.38,370.24,621.86,405c-15.53,29.11-103.45,39.51-131.5,42.12a149.2,149.2,0,0,1-16.38.61c-21.59-.38-82.78-2-114.94-9.16C214.9,406.71,434.3,385.29,434.3,385.29Z"/><path class="cls-4" d="M444.5,394.69s140.78-10.29,128.13,13.44c-10.6,19.87-70.55,27-89.77,28.77a99.84,99.84,0,0,1-11.21.42c-14.73-.25-56.57-1.4-78.55-6.25C294.63,409.32,444.5,394.69,444.5,394.69Z"/><path class="cls-1" d="M288.85,578.06H272.44V552.89c0-37.36,27.67-68.6,64.35-72.66L690.33,441c35.46-3.93,68,18.48,77.5,53.29l8.94,33-15.84,4.3-8.94-33c-7.32-26.95-32.47-44.32-59.85-41.28L338.6,496.54c-28.36,3.14-49.75,27.37-49.75,56.35Z"/><path class="cls-1" d="M285,861.81l-16.41-.18,5.86-535.3a21.75,21.75,0,0,0-13.6-20.48l-3.51-1.43a21.85,21.85,0,0,0-30.09,19.12L207.75,704.1l-16.39-.84L210.9,322.7a38.26,38.26,0,0,1,52.69-33.47l3.51,1.43a38.08,38.08,0,0,1,23.8,35.85Z"/><rect class="cls-4" x="187.11" y="691.53" width="26.63" height="26.63" rx="6.19"/><rect class="cls-4" x="786.26" y="751.15" width="26.63" height="26.63" rx="6.19"/><rect class="cls-4" x="616.94" y="625.24" width="26.63" height="26.63" rx="6.19"/><rect class="cls-4" x="263.52" y="848.41" width="26.63" height="26.63" rx="6.19"/></svg>